<mxfile host="app.diagrams.net" modified="2023-06-12T12:25:16.829Z" agent="Mozilla/5.0 (Windows NT 10.0; Win64; x64) AppleWebKit/537.36 (KHTML, like Gecko) Chrome/114.0.0.0 Safari/537.36" etag="vp5NuyFLkUqLVUFz8oNK" version="21.3.8" type="device">
  <diagram name="Page-1" id="fTknNc4w18CRL0QMwtWg">
    <mxGraphModel dx="4435" dy="1770" grid="1" gridSize="10" guides="1" tooltips="1" connect="1" arrows="1" fold="1" page="1" pageScale="1" pageWidth="850" pageHeight="1100" math="0" shadow="0">
      <root>
        <mxCell id="0" />
        <mxCell id="1" parent="0" />
        <mxCell id="Fav0dc8Gu5VwmQ9crEzE-1" value="" style="ellipse;html=1;shape=startState;fillColor=#000000;strokeColor=#ff0000;" vertex="1" parent="1">
          <mxGeometry x="420" width="30" height="30" as="geometry" />
        </mxCell>
        <mxCell id="Fav0dc8Gu5VwmQ9crEzE-2" value="" style="edgeStyle=orthogonalEdgeStyle;html=1;verticalAlign=bottom;endArrow=open;endSize=8;strokeColor=#ff0000;rounded=0;entryX=0.5;entryY=0;entryDx=0;entryDy=0;" edge="1" source="Fav0dc8Gu5VwmQ9crEzE-1" parent="1" target="Fav0dc8Gu5VwmQ9crEzE-9">
          <mxGeometry relative="1" as="geometry">
            <mxPoint x="435" y="120" as="targetPoint" />
          </mxGeometry>
        </mxCell>
        <mxCell id="Fav0dc8Gu5VwmQ9crEzE-74" style="edgeStyle=orthogonalEdgeStyle;rounded=0;orthogonalLoop=1;jettySize=auto;html=1;" edge="1" parent="1" source="Fav0dc8Gu5VwmQ9crEzE-7">
          <mxGeometry relative="1" as="geometry">
            <mxPoint x="-70" y="229.71499999999992" as="targetPoint" />
          </mxGeometry>
        </mxCell>
        <mxCell id="Fav0dc8Gu5VwmQ9crEzE-7" value="" style="line;strokeWidth=1;fillColor=none;align=left;verticalAlign=middle;spacingTop=-1;spacingLeft=3;spacingRight=3;rotatable=0;labelPosition=right;points=[];portConstraint=eastwest;strokeColor=inherit;" vertex="1" parent="1">
          <mxGeometry x="20" y="220" width="1280" height="19.43" as="geometry" />
        </mxCell>
        <mxCell id="Fav0dc8Gu5VwmQ9crEzE-12" style="edgeStyle=orthogonalEdgeStyle;rounded=0;orthogonalLoop=1;jettySize=auto;html=1;exitX=0.5;exitY=1;exitDx=0;exitDy=0;entryX=0.734;entryY=0.386;entryDx=0;entryDy=0;entryPerimeter=0;" edge="1" parent="1" source="Fav0dc8Gu5VwmQ9crEzE-9" target="Fav0dc8Gu5VwmQ9crEzE-7">
          <mxGeometry relative="1" as="geometry">
            <Array as="points">
              <mxPoint x="435" y="185" />
              <mxPoint x="960" y="185" />
            </Array>
          </mxGeometry>
        </mxCell>
        <mxCell id="Fav0dc8Gu5VwmQ9crEzE-9" value="Startēt SakumaEkrans.java" style="rounded=1;whiteSpace=wrap;html=1;" vertex="1" parent="1">
          <mxGeometry x="375" y="90" width="120" height="60" as="geometry" />
        </mxCell>
        <mxCell id="Fav0dc8Gu5VwmQ9crEzE-49" value="" style="edgeStyle=orthogonalEdgeStyle;rounded=0;orthogonalLoop=1;jettySize=auto;html=1;" edge="1" parent="1" source="Fav0dc8Gu5VwmQ9crEzE-13" target="Fav0dc8Gu5VwmQ9crEzE-48">
          <mxGeometry relative="1" as="geometry" />
        </mxCell>
        <mxCell id="Fav0dc8Gu5VwmQ9crEzE-13" value="Sākt testu" style="rounded=1;whiteSpace=wrap;html=1;" vertex="1" parent="1">
          <mxGeometry x="365" y="280" width="120" height="60" as="geometry" />
        </mxCell>
        <mxCell id="Fav0dc8Gu5VwmQ9crEzE-14" style="edgeStyle=orthogonalEdgeStyle;rounded=0;orthogonalLoop=1;jettySize=auto;html=1;exitX=0.5;exitY=1;exitDx=0;exitDy=0;entryX=0.5;entryY=0;entryDx=0;entryDy=0;" edge="1" parent="1" target="Fav0dc8Gu5VwmQ9crEzE-13">
          <mxGeometry relative="1" as="geometry">
            <mxPoint x="139.5" y="230" as="sourcePoint" />
            <mxPoint x="139.5" y="310" as="targetPoint" />
            <Array as="points">
              <mxPoint x="425" y="230" />
            </Array>
          </mxGeometry>
        </mxCell>
        <mxCell id="Fav0dc8Gu5VwmQ9crEzE-15" style="edgeStyle=orthogonalEdgeStyle;rounded=0;orthogonalLoop=1;jettySize=auto;html=1;exitX=0.541;exitY=0.515;exitDx=0;exitDy=0;entryX=0.5;entryY=0;entryDx=0;entryDy=0;exitPerimeter=0;" edge="1" parent="1" source="Fav0dc8Gu5VwmQ9crEzE-7" target="Fav0dc8Gu5VwmQ9crEzE-17">
          <mxGeometry relative="1" as="geometry">
            <mxPoint x="710" y="250" as="sourcePoint" />
            <mxPoint x="710.5" y="340" as="targetPoint" />
            <Array as="points">
              <mxPoint x="711" y="230" />
            </Array>
          </mxGeometry>
        </mxCell>
        <mxCell id="Fav0dc8Gu5VwmQ9crEzE-19" value="" style="edgeStyle=orthogonalEdgeStyle;rounded=0;orthogonalLoop=1;jettySize=auto;html=1;" edge="1" parent="1" source="Fav0dc8Gu5VwmQ9crEzE-17" target="Fav0dc8Gu5VwmQ9crEzE-18">
          <mxGeometry relative="1" as="geometry" />
        </mxCell>
        <mxCell id="Fav0dc8Gu5VwmQ9crEzE-17" value="Apturēt SakumaEkrans.java" style="rounded=1;whiteSpace=wrap;html=1;" vertex="1" parent="1">
          <mxGeometry x="650" y="310" width="120" height="60" as="geometry" />
        </mxCell>
        <mxCell id="Fav0dc8Gu5VwmQ9crEzE-20" style="edgeStyle=orthogonalEdgeStyle;rounded=0;orthogonalLoop=1;jettySize=auto;html=1;entryX=0.413;entryY=0.669;entryDx=0;entryDy=0;entryPerimeter=0;" edge="1" parent="1" source="Fav0dc8Gu5VwmQ9crEzE-18" target="Fav0dc8Gu5VwmQ9crEzE-7">
          <mxGeometry relative="1" as="geometry">
            <mxPoint x="550" y="240" as="targetPoint" />
            <Array as="points">
              <mxPoint x="549" y="545" />
            </Array>
          </mxGeometry>
        </mxCell>
        <mxCell id="Fav0dc8Gu5VwmQ9crEzE-23" value="" style="edgeStyle=orthogonalEdgeStyle;rounded=0;orthogonalLoop=1;jettySize=auto;html=1;" edge="1" parent="1" source="Fav0dc8Gu5VwmQ9crEzE-18" target="Fav0dc8Gu5VwmQ9crEzE-22">
          <mxGeometry relative="1" as="geometry" />
        </mxCell>
        <mxCell id="Fav0dc8Gu5VwmQ9crEzE-18" value="UzspiestsApturetPoga==true" style="rhombus;whiteSpace=wrap;html=1;rounded=1;" vertex="1" parent="1">
          <mxGeometry x="615" y="450" width="190" height="190" as="geometry" />
        </mxCell>
        <mxCell id="Fav0dc8Gu5VwmQ9crEzE-21" value="Nē" style="text;html=1;align=center;verticalAlign=middle;resizable=0;points=[];autosize=1;strokeColor=none;fillColor=none;" vertex="1" parent="1">
          <mxGeometry x="560" y="520" width="40" height="30" as="geometry" />
        </mxCell>
        <mxCell id="Fav0dc8Gu5VwmQ9crEzE-25" value="" style="edgeStyle=orthogonalEdgeStyle;rounded=0;orthogonalLoop=1;jettySize=auto;html=1;" edge="1" parent="1" source="Fav0dc8Gu5VwmQ9crEzE-22" target="Fav0dc8Gu5VwmQ9crEzE-24">
          <mxGeometry relative="1" as="geometry" />
        </mxCell>
        <mxCell id="Fav0dc8Gu5VwmQ9crEzE-22" value="SakumaEkrans.java apturēts" style="whiteSpace=wrap;html=1;rounded=1;" vertex="1" parent="1">
          <mxGeometry x="650" y="785" width="120" height="60" as="geometry" />
        </mxCell>
        <mxCell id="Fav0dc8Gu5VwmQ9crEzE-24" value="" style="ellipse;html=1;shape=endState;fillColor=#000000;strokeColor=#ff0000;" vertex="1" parent="1">
          <mxGeometry x="695" y="910" width="30" height="30" as="geometry" />
        </mxCell>
        <mxCell id="Fav0dc8Gu5VwmQ9crEzE-29" value="" style="edgeStyle=orthogonalEdgeStyle;rounded=0;orthogonalLoop=1;jettySize=auto;html=1;" edge="1" parent="1" source="Fav0dc8Gu5VwmQ9crEzE-26" target="Fav0dc8Gu5VwmQ9crEzE-28">
          <mxGeometry relative="1" as="geometry" />
        </mxCell>
        <mxCell id="Fav0dc8Gu5VwmQ9crEzE-26" value="Noteikumi" style="rounded=1;whiteSpace=wrap;html=1;" vertex="1" parent="1">
          <mxGeometry x="1010" y="330" width="120" height="60" as="geometry" />
        </mxCell>
        <mxCell id="Fav0dc8Gu5VwmQ9crEzE-27" style="edgeStyle=orthogonalEdgeStyle;rounded=0;orthogonalLoop=1;jettySize=auto;html=1;exitX=0.818;exitY=0.554;exitDx=0;exitDy=0;entryX=0.5;entryY=0;entryDx=0;entryDy=0;exitPerimeter=0;" edge="1" parent="1" source="Fav0dc8Gu5VwmQ9crEzE-7" target="Fav0dc8Gu5VwmQ9crEzE-26">
          <mxGeometry relative="1" as="geometry">
            <mxPoint x="1069.52" y="239.43" as="sourcePoint" />
            <mxPoint x="1070.02" y="329.43" as="targetPoint" />
            <Array as="points">
              <mxPoint x="1070" y="231" />
            </Array>
          </mxGeometry>
        </mxCell>
        <mxCell id="Fav0dc8Gu5VwmQ9crEzE-30" style="edgeStyle=orthogonalEdgeStyle;rounded=0;orthogonalLoop=1;jettySize=auto;html=1;exitX=0;exitY=0.5;exitDx=0;exitDy=0;entryX=0.706;entryY=0.473;entryDx=0;entryDy=0;entryPerimeter=0;" edge="1" parent="1" source="Fav0dc8Gu5VwmQ9crEzE-28" target="Fav0dc8Gu5VwmQ9crEzE-7">
          <mxGeometry relative="1" as="geometry">
            <Array as="points">
              <mxPoint x="924" y="555" />
            </Array>
          </mxGeometry>
        </mxCell>
        <mxCell id="Fav0dc8Gu5VwmQ9crEzE-32" value="" style="edgeStyle=orthogonalEdgeStyle;rounded=0;orthogonalLoop=1;jettySize=auto;html=1;" edge="1" parent="1" source="Fav0dc8Gu5VwmQ9crEzE-28" target="Fav0dc8Gu5VwmQ9crEzE-31">
          <mxGeometry relative="1" as="geometry" />
        </mxCell>
        <mxCell id="Fav0dc8Gu5VwmQ9crEzE-28" value="UzspiestsNoteikumiPoga==true" style="rhombus;whiteSpace=wrap;html=1;rounded=1;" vertex="1" parent="1">
          <mxGeometry x="975" y="460" width="190" height="190" as="geometry" />
        </mxCell>
        <mxCell id="Fav0dc8Gu5VwmQ9crEzE-33" style="edgeStyle=orthogonalEdgeStyle;rounded=0;orthogonalLoop=1;jettySize=auto;html=1;entryX=0.95;entryY=0.679;entryDx=0;entryDy=0;entryPerimeter=0;" edge="1" parent="1" source="Fav0dc8Gu5VwmQ9crEzE-31" target="Fav0dc8Gu5VwmQ9crEzE-7">
          <mxGeometry relative="1" as="geometry">
            <Array as="points">
              <mxPoint x="1240" y="825" />
              <mxPoint x="1240" y="233" />
            </Array>
          </mxGeometry>
        </mxCell>
        <mxCell id="Fav0dc8Gu5VwmQ9crEzE-31" value="Izdrukā noteikumus" style="whiteSpace=wrap;html=1;rounded=1;" vertex="1" parent="1">
          <mxGeometry x="1010" y="795" width="120" height="60" as="geometry" />
        </mxCell>
        <mxCell id="Fav0dc8Gu5VwmQ9crEzE-37" value="" style="edgeStyle=orthogonalEdgeStyle;rounded=0;orthogonalLoop=1;jettySize=auto;html=1;" edge="1" parent="1" source="Fav0dc8Gu5VwmQ9crEzE-34" target="Fav0dc8Gu5VwmQ9crEzE-36">
          <mxGeometry relative="1" as="geometry" />
        </mxCell>
        <mxCell id="Fav0dc8Gu5VwmQ9crEzE-42" value="" style="edgeStyle=orthogonalEdgeStyle;rounded=0;orthogonalLoop=1;jettySize=auto;html=1;" edge="1" parent="1" source="Fav0dc8Gu5VwmQ9crEzE-34" target="Fav0dc8Gu5VwmQ9crEzE-41">
          <mxGeometry relative="1" as="geometry" />
        </mxCell>
        <mxCell id="Fav0dc8Gu5VwmQ9crEzE-34" value="IesniegtaAtbilde==PareizaAtbilde" style="rhombus;whiteSpace=wrap;html=1;rounded=1;" vertex="1" parent="1">
          <mxGeometry x="325" y="490" width="200" height="200" as="geometry" />
        </mxCell>
        <mxCell id="Fav0dc8Gu5VwmQ9crEzE-46" style="edgeStyle=orthogonalEdgeStyle;rounded=0;orthogonalLoop=1;jettySize=auto;html=1;entryX=0.5;entryY=0;entryDx=0;entryDy=0;" edge="1" parent="1" source="Fav0dc8Gu5VwmQ9crEzE-36" target="Fav0dc8Gu5VwmQ9crEzE-44">
          <mxGeometry relative="1" as="geometry">
            <Array as="points">
              <mxPoint x="140" y="890" />
            </Array>
          </mxGeometry>
        </mxCell>
        <mxCell id="Fav0dc8Gu5VwmQ9crEzE-36" value="Pareizā atbilde, paziņojums ka nepareizi atbildēts" style="whiteSpace=wrap;html=1;rounded=1;" vertex="1" parent="1">
          <mxGeometry x="80" y="560" width="120" height="60" as="geometry" />
        </mxCell>
        <mxCell id="Fav0dc8Gu5VwmQ9crEzE-38" value="Nē" style="text;html=1;align=center;verticalAlign=middle;resizable=0;points=[];autosize=1;strokeColor=none;fillColor=none;" vertex="1" parent="1">
          <mxGeometry x="270" y="558" width="40" height="30" as="geometry" />
        </mxCell>
        <mxCell id="Fav0dc8Gu5VwmQ9crEzE-39" value="Nē" style="text;html=1;align=center;verticalAlign=middle;resizable=0;points=[];autosize=1;strokeColor=none;fillColor=none;" vertex="1" parent="1">
          <mxGeometry x="930" y="508" width="40" height="30" as="geometry" />
        </mxCell>
        <mxCell id="Fav0dc8Gu5VwmQ9crEzE-40" value="Jā" style="text;html=1;align=center;verticalAlign=middle;resizable=0;points=[];autosize=1;strokeColor=none;fillColor=none;" vertex="1" parent="1">
          <mxGeometry x="1080" y="648" width="40" height="30" as="geometry" />
        </mxCell>
        <mxCell id="Fav0dc8Gu5VwmQ9crEzE-45" value="" style="edgeStyle=orthogonalEdgeStyle;rounded=0;orthogonalLoop=1;jettySize=auto;html=1;" edge="1" parent="1" source="Fav0dc8Gu5VwmQ9crEzE-41" target="Fav0dc8Gu5VwmQ9crEzE-44">
          <mxGeometry relative="1" as="geometry" />
        </mxCell>
        <mxCell id="Fav0dc8Gu5VwmQ9crEzE-41" value="Pareizā atbilde, paziņojums ka pareizi atbildēts" style="whiteSpace=wrap;html=1;rounded=1;" vertex="1" parent="1">
          <mxGeometry x="365" y="760" width="120" height="60" as="geometry" />
        </mxCell>
        <mxCell id="Fav0dc8Gu5VwmQ9crEzE-43" value="Jā" style="text;html=1;align=center;verticalAlign=middle;resizable=0;points=[];autosize=1;strokeColor=none;fillColor=none;" vertex="1" parent="1">
          <mxGeometry x="430" y="698" width="40" height="30" as="geometry" />
        </mxCell>
        <mxCell id="Fav0dc8Gu5VwmQ9crEzE-47" style="edgeStyle=orthogonalEdgeStyle;rounded=0;orthogonalLoop=1;jettySize=auto;html=1;entryX=0.5;entryY=0;entryDx=0;entryDy=0;" edge="1" parent="1" source="Fav0dc8Gu5VwmQ9crEzE-44" target="Fav0dc8Gu5VwmQ9crEzE-48">
          <mxGeometry relative="1" as="geometry">
            <mxPoint x="30" y="647.6470588235294" as="targetPoint" />
            <Array as="points">
              <mxPoint x="40" y="1010" />
              <mxPoint x="40" y="350" />
              <mxPoint x="425" y="350" />
            </Array>
          </mxGeometry>
        </mxCell>
        <mxCell id="Fav0dc8Gu5VwmQ9crEzE-53" value="" style="edgeStyle=orthogonalEdgeStyle;rounded=0;orthogonalLoop=1;jettySize=auto;html=1;" edge="1" parent="1" source="Fav0dc8Gu5VwmQ9crEzE-44" target="Fav0dc8Gu5VwmQ9crEzE-52">
          <mxGeometry relative="1" as="geometry" />
        </mxCell>
        <mxCell id="Fav0dc8Gu5VwmQ9crEzE-44" value="IesniegtasAtbildes==10" style="rhombus;whiteSpace=wrap;html=1;rounded=1;" vertex="1" parent="1">
          <mxGeometry x="305" y="890" width="240" height="240" as="geometry" />
        </mxCell>
        <mxCell id="Fav0dc8Gu5VwmQ9crEzE-50" value="" style="edgeStyle=orthogonalEdgeStyle;rounded=0;orthogonalLoop=1;jettySize=auto;html=1;" edge="1" parent="1" source="Fav0dc8Gu5VwmQ9crEzE-48" target="Fav0dc8Gu5VwmQ9crEzE-34">
          <mxGeometry relative="1" as="geometry" />
        </mxCell>
        <mxCell id="Fav0dc8Gu5VwmQ9crEzE-48" value="Jautājums" style="rounded=1;whiteSpace=wrap;html=1;" vertex="1" parent="1">
          <mxGeometry x="365" y="380" width="120" height="60" as="geometry" />
        </mxCell>
        <mxCell id="Fav0dc8Gu5VwmQ9crEzE-51" value="Nē" style="text;html=1;align=center;verticalAlign=middle;resizable=0;points=[];autosize=1;strokeColor=none;fillColor=none;" vertex="1" parent="1">
          <mxGeometry x="240" y="970" width="40" height="30" as="geometry" />
        </mxCell>
        <mxCell id="Fav0dc8Gu5VwmQ9crEzE-56" value="" style="edgeStyle=orthogonalEdgeStyle;rounded=0;orthogonalLoop=1;jettySize=auto;html=1;" edge="1" parent="1" source="Fav0dc8Gu5VwmQ9crEzE-52" target="Fav0dc8Gu5VwmQ9crEzE-55">
          <mxGeometry relative="1" as="geometry" />
        </mxCell>
        <mxCell id="Fav0dc8Gu5VwmQ9crEzE-52" value="Izdrukā punktus" style="whiteSpace=wrap;html=1;rounded=1;" vertex="1" parent="1">
          <mxGeometry x="365" y="1200" width="120" height="60" as="geometry" />
        </mxCell>
        <mxCell id="Fav0dc8Gu5VwmQ9crEzE-54" value="Jā" style="text;html=1;align=center;verticalAlign=middle;resizable=0;points=[];autosize=1;strokeColor=none;fillColor=none;" vertex="1" parent="1">
          <mxGeometry x="425" y="1130" width="40" height="30" as="geometry" />
        </mxCell>
        <mxCell id="Fav0dc8Gu5VwmQ9crEzE-58" value="" style="edgeStyle=orthogonalEdgeStyle;rounded=0;orthogonalLoop=1;jettySize=auto;html=1;" edge="1" parent="1" source="Fav0dc8Gu5VwmQ9crEzE-55" target="Fav0dc8Gu5VwmQ9crEzE-57">
          <mxGeometry relative="1" as="geometry">
            <Array as="points">
              <mxPoint x="425" y="1410" />
              <mxPoint x="240" y="1410" />
            </Array>
          </mxGeometry>
        </mxCell>
        <mxCell id="Fav0dc8Gu5VwmQ9crEzE-60" value="" style="edgeStyle=orthogonalEdgeStyle;rounded=0;orthogonalLoop=1;jettySize=auto;html=1;" edge="1" parent="1" source="Fav0dc8Gu5VwmQ9crEzE-55" target="Fav0dc8Gu5VwmQ9crEzE-59">
          <mxGeometry relative="1" as="geometry">
            <Array as="points">
              <mxPoint x="425" y="1410" />
              <mxPoint x="730" y="1410" />
            </Array>
          </mxGeometry>
        </mxCell>
        <mxCell id="Fav0dc8Gu5VwmQ9crEzE-55" value="Izdrukā nepareizi atbildētos jautājumus" style="whiteSpace=wrap;html=1;rounded=1;" vertex="1" parent="1">
          <mxGeometry x="365" y="1320" width="120" height="60" as="geometry" />
        </mxCell>
        <mxCell id="Fav0dc8Gu5VwmQ9crEzE-64" value="" style="edgeStyle=orthogonalEdgeStyle;rounded=0;orthogonalLoop=1;jettySize=auto;html=1;" edge="1" parent="1" source="Fav0dc8Gu5VwmQ9crEzE-57" target="Fav0dc8Gu5VwmQ9crEzE-63">
          <mxGeometry relative="1" as="geometry" />
        </mxCell>
        <mxCell id="Fav0dc8Gu5VwmQ9crEzE-57" value="Uz&amp;nbsp; sākumu poga" style="whiteSpace=wrap;html=1;rounded=1;" vertex="1" parent="1">
          <mxGeometry x="180" y="1500" width="120" height="60" as="geometry" />
        </mxCell>
        <mxCell id="Fav0dc8Gu5VwmQ9crEzE-62" value="" style="edgeStyle=orthogonalEdgeStyle;rounded=0;orthogonalLoop=1;jettySize=auto;html=1;" edge="1" parent="1" source="Fav0dc8Gu5VwmQ9crEzE-59" target="Fav0dc8Gu5VwmQ9crEzE-61">
          <mxGeometry relative="1" as="geometry" />
        </mxCell>
        <mxCell id="Fav0dc8Gu5VwmQ9crEzE-59" value="Apturēt Beigas.java poga" style="whiteSpace=wrap;html=1;rounded=1;" vertex="1" parent="1">
          <mxGeometry x="670" y="1500" width="120" height="60" as="geometry" />
        </mxCell>
        <mxCell id="Fav0dc8Gu5VwmQ9crEzE-67" style="edgeStyle=orthogonalEdgeStyle;rounded=0;orthogonalLoop=1;jettySize=auto;html=1;exitX=1;exitY=0.5;exitDx=0;exitDy=0;entryX=0.567;entryY=-0.06;entryDx=0;entryDy=0;entryPerimeter=0;" edge="1" parent="1" source="Fav0dc8Gu5VwmQ9crEzE-61" target="Fav0dc8Gu5VwmQ9crEzE-55">
          <mxGeometry relative="1" as="geometry">
            <Array as="points">
              <mxPoint x="910" y="1780" />
              <mxPoint x="910" y="1270" />
              <mxPoint x="425" y="1270" />
              <mxPoint x="425" y="1316" />
            </Array>
          </mxGeometry>
        </mxCell>
        <mxCell id="Fav0dc8Gu5VwmQ9crEzE-69" value="" style="edgeStyle=orthogonalEdgeStyle;rounded=0;orthogonalLoop=1;jettySize=auto;html=1;" edge="1" parent="1" source="Fav0dc8Gu5VwmQ9crEzE-61" target="Fav0dc8Gu5VwmQ9crEzE-65">
          <mxGeometry relative="1" as="geometry" />
        </mxCell>
        <mxCell id="Fav0dc8Gu5VwmQ9crEzE-61" value="AturētPoga==true" style="rhombus;whiteSpace=wrap;html=1;rounded=1;" vertex="1" parent="1">
          <mxGeometry x="570" y="1620" width="320" height="320" as="geometry" />
        </mxCell>
        <mxCell id="Fav0dc8Gu5VwmQ9crEzE-71" style="edgeStyle=orthogonalEdgeStyle;rounded=0;orthogonalLoop=1;jettySize=auto;html=1;entryX=0.5;entryY=0;entryDx=0;entryDy=0;" edge="1" parent="1" source="Fav0dc8Gu5VwmQ9crEzE-63" target="Fav0dc8Gu5VwmQ9crEzE-55">
          <mxGeometry relative="1" as="geometry">
            <Array as="points">
              <mxPoint x="30" y="1780" />
              <mxPoint x="30" y="1300" />
              <mxPoint x="425" y="1300" />
            </Array>
          </mxGeometry>
        </mxCell>
        <mxCell id="Fav0dc8Gu5VwmQ9crEzE-75" style="edgeStyle=orthogonalEdgeStyle;rounded=0;orthogonalLoop=1;jettySize=auto;html=1;" edge="1" parent="1" source="Fav0dc8Gu5VwmQ9crEzE-63">
          <mxGeometry relative="1" as="geometry">
            <mxPoint x="-30" y="223.33333333333334" as="targetPoint" />
            <Array as="points">
              <mxPoint x="240" y="1960" />
              <mxPoint x="-29" y="1960" />
              <mxPoint x="-29" y="223" />
            </Array>
          </mxGeometry>
        </mxCell>
        <mxCell id="Fav0dc8Gu5VwmQ9crEzE-63" value="SākumaPoga==true" style="rhombus;whiteSpace=wrap;html=1;rounded=1;" vertex="1" parent="1">
          <mxGeometry x="80" y="1620" width="320" height="320" as="geometry" />
        </mxCell>
        <mxCell id="Fav0dc8Gu5VwmQ9crEzE-65" value="" style="ellipse;html=1;shape=endState;fillColor=#000000;strokeColor=#ff0000;" vertex="1" parent="1">
          <mxGeometry x="715" y="2040" width="30" height="30" as="geometry" />
        </mxCell>
        <mxCell id="Fav0dc8Gu5VwmQ9crEzE-68" value="Nē" style="text;html=1;align=center;verticalAlign=middle;resizable=0;points=[];autosize=1;strokeColor=none;fillColor=none;" vertex="1" parent="1">
          <mxGeometry x="870" y="1718" width="40" height="30" as="geometry" />
        </mxCell>
        <mxCell id="Fav0dc8Gu5VwmQ9crEzE-70" value="Jā" style="text;html=1;align=center;verticalAlign=middle;resizable=0;points=[];autosize=1;strokeColor=none;fillColor=none;" vertex="1" parent="1">
          <mxGeometry x="730" y="1978" width="40" height="30" as="geometry" />
        </mxCell>
        <mxCell id="Fav0dc8Gu5VwmQ9crEzE-72" value="Nē" style="text;html=1;align=center;verticalAlign=middle;resizable=0;points=[];autosize=1;strokeColor=none;fillColor=none;" vertex="1" parent="1">
          <mxGeometry x="30" y="1740" width="40" height="30" as="geometry" />
        </mxCell>
        <mxCell id="Fav0dc8Gu5VwmQ9crEzE-76" value="Jā" style="text;html=1;align=center;verticalAlign=middle;resizable=0;points=[];autosize=1;strokeColor=none;fillColor=none;" vertex="1" parent="1">
          <mxGeometry x="160" y="1928" width="40" height="30" as="geometry" />
        </mxCell>
      </root>
    </mxGraphModel>
  </diagram>
</mxfile>
